# xmcd
#
# Track frame offsets:
#	150
#	18025
#	36884
#	52490
#	71443
#	86182
#	110396
#	127354
#	137964
#	156970
#	172790
#	186317
#	201830
#	217866
#	236475
#	253486
#	268641
#	283551
#	309637
#
# Disc length: 4355 seconds
#
# Revision: 1
# Processed by: cddbd v1.5.1PL0 Copyright (c) Steve Scherf et al.
# Submitted via: audiograbber 1.80
#
DISCID=24110113
DTITLE=Various Artist - ERG NCT 126
DYEAR=1900
DGENRE=
TTITLE0=Terri Clark - World Needs A Drink, The
TTITLE1=Gretchen Wilson - When I Think About Cheatin'
TTITLE2=Montgomery Gentry - Gone
TTITLE3=Keith Urban - You're My Better Half
TTITLE4=Chris Cummings - Not Again
TTITLE5=Kenny Chesney - Anything But Mine
TTITLE6=Rascal Flatts - Bless The Broken Road
TTITLE7=Joe Nichols - What's A Guy Gotta Do
TTITLE8=Jason McCoy - I Lie
TTITLE9=Lee Ann Womack - I May Hate Myself In The Morning
TTITLE10=Mark Chestnutt - I'm A Saint
TTITLE11=Brad Cotter - I Miss Me
TTITLE12=Rodney Atkins - Monkey In The Middle
TTITLE13=Amy Dalley - I Would Cry
TTITLE14=Jimmy Wayne - Paper Angels
TTITLE15=Doc Walker - Forgive Me (For Giving A Damn)
TTITLE16=Craig Morgan - That's What I Like About Sunday
TTITLE17=Martina McBride - God's Will
TTITLE18=Trent Willmon - Home Sweet Holiday Inn
EXTD=
EXTT0=
EXTT1=
EXTT2=
EXTT3=
EXTT4=
EXTT5=
EXTT6=
EXTT7=
EXTT8=
EXTT9=
EXTT10=
EXTT11=
EXTT12=
EXTT13=
EXTT14=
EXTT15=
EXTT16=
EXTT17=
EXTT18=
PLAYORDER=
